<?xml version="1.0" standalone="no"?>
<!DOCTYPE svg PUBLIC "-//W3C//DTD SVG 20010904//EN"
 "http://www.w3.org/TR/2001/REC-SVG-20010904/DTD/svg10.dtd">
<svg version="1.0" xmlns="http://www.w3.org/2000/svg"
 width="905.000000pt" height="471.000000pt" viewBox="0 0 905.000000 471.000000"
 preserveAspectRatio="xMidYMid meet">
<metadata>
Created by potrace 1.16, written by Peter Selinger 2001-2019
</metadata>
<g transform="translate(0.000000,471.000000) scale(0.100000,-0.100000)"
fill="#000000" stroke="none">
<path d="M1084 4630 c-51 -11 -96 -49 -152 -125 -4 -5 -43 -55 -87 -110 -210
-265 -233 -295 -218 -295 4 0 19 17 33 38 14 20 43 57 66 82 22 25 66 80 97
122 32 42 63 83 70 90 7 7 33 40 59 73 51 67 77 90 116 108 19 9 166 14 507
17 l480 6 -470 1 c-259 0 -484 -2 -501 -7z"/>
<path d="M2065 4624 c9 -22 14 -279 5 -294 -4 -6 -156 -11 -406 -13 l-399 -2
423 -3 422 -2 1 28 c6 124 3 182 -8 182 -8 0 -13 21 -15 57 -2 38 -8 58 -17
61 -11 4 -12 0 -6 -14z"/>
<path d="M7785 4630 c82 -8 118 -18 110 -31 -4 -5 -19 -9 -35 -9 -30 0 -40
-15 -40 -59 0 -25 -3 -28 -25 -23 -21 4 -25 10 -25 38 0 36 -14 51 -34 35 -9
-7 -16 -7 -23 0 -6 6 -28 9 -49 7 -34 -3 -40 -7 -44 -33 l-6 -30 -14 30 c-9
17 -25 31 -37 33 -18 3 -26 -5 -39 -37 -13 -32 -21 -41 -40 -41 -19 0 -24 5
-24 28 0 37 -16 60 -30 46 -9 -9 -19 -9 -40 -1 -21 8 -35 8 -53 0 -18 -9 -28
-8 -36 0 -9 9 -17 8 -32 -1 -16 -10 -24 -10 -35 -1 -11 9 -17 9 -28 0 -10 -8
-16 -9 -21 -1 -9 14 -58 13 -73 -2 -10 -10 -15 -10 -21 1 -7 10 -22 12 -58 8
-26 -3 -67 -2 -90 2 -37 7 -42 6 -52 -15 -9 -20 -7 -59 4 -91 6 -18 25 -16 25
2 0 19 14 19 29 2 15 -19 226 -20 242 -1 16 19 1 35 -27 28 -19 -5 -24 -2 -24
14 0 17 6 20 38 19 40 -1 62 -20 55 -47 -6 -21 27 -36 38 -18 4 6 5 16 3 20
-3 5 5 21 17 36 12 15 19 19 16 9 -18 -48 38 -92 88 -69 15 7 26 8 30 2 10
-17 97 -12 117 7 17 15 19 15 36 0 21 -19 127 -24 137 -7 4 7 11 8 18 2 7 -6
51 -10 99 -11 l87 0 -3 33 c-2 18 -6 38 -10 45 -4 6 -2 11 3 11 6 0 11 7 11
16 0 23 45 -15 79 -65 37 -56 191 -253 213 -272 10 -9 18 -21 18 -27 0 -6 4
-12 8 -14 4 -1 39 -43 77 -93 38 -49 73 -94 78 -100 18 -23 160 -202 175 -220
10 -11 30 -37 46 -58 15 -21 30 -36 33 -33 4 4 -32 62 -48 76 -4 4 -178 223
-242 305 -4 6 -40 51 -80 101 -39 50 -83 106 -97 124 -14 18 -57 72 -95 119
-39 47 -81 103 -95 123 -14 21 -35 43 -47 49 -13 7 -23 16 -23 20 0 14 -74 29
-140 27 l-65 -1 70 -7z"/>
<path d="M1233 4504 c-17 -12 -17 -13 0 -19 11 -5 17 -18 17 -41 0 -23 6 -37
20 -44 14 -8 20 -8 20 0 0 7 8 9 19 5 11 -3 29 0 40 7 17 10 23 9 39 -5 14
-13 25 -15 49 -8 18 5 35 5 40 0 15 -15 163 1 163 17 0 9 7 7 21 -7 19 -19 23
-19 36 -6 13 13 18 13 42 -1 24 -13 31 -14 57 -1 23 12 34 12 53 3 17 -9 32
-9 53 -2 28 10 29 13 23 52 -4 22 -11 45 -15 50 -12 12 -59 11 -72 -2 -6 -6
-19 -5 -39 5 -25 13 -33 13 -59 0 -25 -13 -31 -13 -41 -1 -10 13 -14 12 -29
-1 -12 -11 -20 -13 -25 -6 -3 6 -24 11 -46 11 -39 0 -39 0 -39 -40 0 -36 -2
-40 -25 -40 -21 0 -25 5 -25 28 0 36 -14 56 -34 49 -8 -3 -18 -2 -21 3 -11 18
-34 -2 -37 -33 l-4 -32 -14 33 c-15 32 -17 33 -82 36 -45 2 -74 -1 -85 -10z"/>
<path d="M7134 4436 c-3 -8 -1 -31 5 -53 15 -52 14 -61 -6 -66 -14 -4 -12 -5
5 -6 12 0 22 4 22 9 0 6 7 10 15 10 9 0 19 10 24 22 7 20 8 20 19 -10 l11 -32
78 -1 c166 -3 238 1 241 11 2 5 8 10 13 10 6 0 7 -4 4 -10 -4 -6 19 -10 63
-10 65 0 70 -1 106 -37 21 -21 76 -87 123 -148 47 -60 98 -125 114 -144 17
-19 44 -54 62 -78 17 -25 33 -40 35 -34 2 6 -18 37 -45 69 -27 31 -62 75 -78
97 -16 22 -44 58 -62 80 -19 22 -37 45 -41 50 -47 64 -110 133 -135 148 -38
20 -47 41 -40 84 7 44 -11 50 -165 51 -104 0 -124 -2 -129 -16 -4 -9 -1 -18 5
-20 7 -2 12 -18 12 -35 l-1 -32 -14 25 c-8 14 -14 33 -15 42 0 21 -36 42 -53
31 -6 -4 -24 -6 -39 -4 -21 2 -28 -2 -29 -16 0 -15 -2 -14 -9 5 -11 26 -18 27
-42 5 -10 -9 -18 -11 -18 -6 0 17 -30 24 -36 9z"/>
<path d="M4074 3499 c-3 -5 0 -9 5 -9 6 0 11 -4 11 -10 0 -5 -7 -10 -15 -10
-8 0 -15 7 -15 15 0 18 -12 19 -27 4 -8 -8 -16 -7 -30 1 -15 10 -25 9 -51 -4
-18 -9 -32 -12 -32 -6 0 15 -100 13 -100 -2 -1 -9 -5 -8 -13 3 -10 13 -19 14
-57 5 -41 -10 -45 -14 -48 -45 -7 -68 22 -108 47 -63 9 16 10 16 16 0 6 -15
20 -18 75 -18 38 0 72 4 75 10 4 6 13 5 24 -2 28 -17 86 2 86 27 0 16 -6 20
-32 17 -22 -1 -33 2 -33 11 0 9 12 13 37 13 35 -2 45 -10 57 -48 3 -10 15 -18
26 -18 15 0 20 7 20 24 0 14 5 28 10 31 6 3 10 0 10 -8 0 -7 10 -23 23 -34 19
-18 35 -21 116 -22 58 0 100 4 109 11 10 9 18 9 34 -1 11 -7 48 -12 86 -11 37
1 105 1 151 0 46 0 89 4 95 9 13 11 14 50 3 68 -10 15 18 24 32 10 6 -6 11
-19 11 -28 0 -9 8 -27 18 -39 15 -18 22 -21 38 -12 12 6 36 7 64 2 36 -7 47
-6 57 7 10 13 15 12 39 -12 20 -20 29 -24 35 -14 4 8 18 14 31 14 19 0 23 6
26 38 2 20 8 37 13 37 6 0 9 -12 8 -28 -5 -44 6 -52 77 -52 51 0 66 4 71 16 6
15 7 15 19 0 7 -10 21 -16 31 -14 15 3 17 12 15 58 -2 30 -8 59 -13 64 -14 15
-67 15 -80 0 -6 -8 -15 -12 -19 -9 -8 5 -151 17 -180 16 -8 0 -41 -2 -72 -2
-32 -1 -58 -6 -58 -11 0 -5 -5 -6 -10 -3 -6 4 -8 11 -5 16 9 14 -19 11 -40 -5
-16 -12 -21 -11 -33 1 -12 12 -17 12 -33 -3 -21 -18 -41 -11 -32 12 5 14 3 15
-15 5 -11 -6 -37 -11 -56 -11 -38 0 -41 -6 -37 -62 1 -18 -3 -28 -11 -28 -23
0 -40 17 -38 36 4 38 0 52 -20 57 -14 4 -20 0 -20 -11 0 -12 -3 -13 -12 -4
-17 17 -68 15 -90 -5 -15 -14 -22 -14 -42 -3 -32 17 -51 9 -67 -29 -20 -45
-47 -41 -55 9 -5 30 -11 40 -25 40 -11 0 -19 -5 -19 -12 0 -9 -3 -9 -12 0 -14
14 -78 16 -78 2 0 -5 -4 -10 -10 -10 -5 0 -10 6 -10 14 0 15 -48 28 -56 15z"/>
<path d="M3947 2994 c-12 -12 -8 -79 5 -92 15 -15 51 -15 66 0 8 8 15 8 24 1
18 -14 104 -16 128 -3 24 13 27 62 4 84 -12 12 -32 15 -92 12 l-77 -3 -3 -37
c-4 -44 -25 -44 -30 0 -4 32 -15 48 -25 38z"/>
<path d="M4330 2944 l0 -54 40 0 c34 0 40 3 40 21 0 21 0 21 19 -2 17 -21 22
-22 40 -11 13 7 21 8 21 2 0 -5 21 -10 46 -10 38 0 45 3 40 16 -3 9 -6 24 -6
35 0 12 -7 19 -20 19 -11 0 -20 5 -20 10 0 6 9 10 20 10 11 0 20 5 20 10 0 6
-18 10 -40 10 -37 0 -40 -2 -41 -27 -1 -21 -2 -23 -6 -8 -8 34 -23 42 -39 20
-13 -17 -16 -18 -24 -5 -5 9 -26 16 -50 17 l-40 1 0 -54z"/>
<path d="M4720 2954 c-11 -25 -20 -50 -20 -55 0 -13 24 -11 38 3 10 10 17 10
32 0 13 -8 62 -12 140 -12 107 0 120 2 120 18 1 16 1 16 14 0 15 -21 52 -24
60 -5 5 10 7 10 12 0 7 -16 76 -17 91 -2 8 8 13 8 17 0 4 -6 25 -11 47 -11 47
0 55 13 42 67 -7 31 -13 39 -36 41 -39 5 -58 -14 -50 -47 6 -24 5 -25 -11 -12
-9 8 -14 21 -11 29 12 31 -62 45 -86 16 -11 -14 -13 -14 -21 0 -12 21 -38 20
-38 -1 0 -15 -1 -15 -18 0 -21 20 -42 22 -42 6 0 -8 -4 -8 -15 1 -21 17 -35 3
-35 -36 0 -30 -3 -34 -25 -34 -22 0 -25 4 -25 34 0 39 -14 53 -35 36 -9 -7
-15 -8 -20 0 -13 20 -24 9 -27 -27 l-3 -38 -20 38 c-26 52 -51 49 -75 -9z"/>
<path d="M3659 2588 c-2 -27 3 -93 7 -98 3 -2 9 2 13 9 5 8 11 9 15 3 7 -11
103 -9 130 3 14 6 23 3 32 -10 23 -31 28 8 9 60 -23 58 -46 59 -70 3 l-19 -43
-4 43 c-2 33 -7 42 -22 42 -12 0 -20 -8 -22 -22 -2 -13 -7 -23 -13 -23 -5 0
-11 10 -13 23 -4 24 -41 32 -43 10z"/>
<path d="M3880 2586 c0 -7 7 -16 15 -20 9 -3 15 -18 15 -40 0 -19 4 -38 10
-41 9 -5 15 11 22 60 5 33 33 24 36 -12 5 -56 67 -69 89 -20 l10 22 7 -22 c8
-26 26 -31 26 -8 0 8 4 15 9 15 5 0 16 -7 25 -15 8 -8 22 -15 32 -15 13 0 14
3 4 15 -7 8 -10 25 -6 39 10 41 -2 56 -45 56 -35 0 -39 -3 -39 -25 0 -14 -4
-25 -10 -25 -5 0 -10 12 -10 26 0 43 -25 22 -28 -24 -2 -29 -8 -42 -18 -42
-12 0 -19 19 -15 44 1 4 -1 16 -4 26 -7 23 -125 29 -125 6z"/>
<path d="M5097 2593 c-4 -3 -7 -28 -7 -55 0 -36 4 -48 15 -48 8 0 15 7 15 15
0 8 5 15 10 15 6 0 13 -7 16 -15 4 -8 15 -15 25 -15 14 0 19 7 19 28 l1 27 15
-27 c17 -32 57 -46 80 -27 12 10 22 10 49 0 50 -18 75 -2 72 47 -3 48 -13 62
-42 62 -31 0 -50 -32 -35 -60 8 -16 8 -20 -4 -20 -8 0 -18 5 -21 10 -10 15
-45 12 -45 -5 0 -9 -6 -12 -15 -9 -18 7 -20 43 -2 45 6 1 21 2 32 3 32 2 24
31 -10 34 -23 3 -35 -3 -52 -25 -22 -26 -23 -27 -23 -6 0 30 -20 40 -27 14 -7
-26 -19 -27 -33 -1 -11 21 -22 25 -33 13z"/>
<path d="M4308 1431 c-18 -16 -20 -22 -11 -32 9 -9 10 -16 1 -26 -15 -19 3
-36 36 -34 14 1 34 2 44 2 9 0 27 6 40 12 17 8 28 8 42 -1 11 -7 31 -12 45
-12 19 0 25 5 25 23 1 22 1 22 16 2 23 -31 130 -37 151 -9 31 42 -6 102 -55
89 -15 -4 -37 -7 -49 -7 -13 0 -23 -6 -23 -14 0 -18 -14 -18 -30 1 -22 27 -40
18 -40 -20 0 -19 -4 -35 -8 -35 -4 0 -14 16 -21 35 -16 44 -44 47 -61 5 -14
-34 -33 -35 -38 -2 -5 35 -36 45 -64 23z"/>
</g>
</svg>
